<mxfile host="app.diagrams.net" modified="2023-12-04T06:56:22.985Z" agent="Mozilla/5.0 (Windows NT 10.0; Win64; x64) AppleWebKit/537.36 (KHTML, like Gecko) Chrome/119.0.0.0 Safari/537.36" etag="Z3LUjNeB9tinTq38O7Kj" version="22.1.5" type="github">
  <diagram name="페이지-1" id="9jE9BsmCvOT8HA4ghK3p">
    <mxGraphModel dx="763" dy="504" grid="1" gridSize="10" guides="1" tooltips="1" connect="1" arrows="1" fold="1" page="1" pageScale="1" pageWidth="827" pageHeight="1169" math="0" shadow="0">
      <root>
        <mxCell id="0" />
        <mxCell id="1" parent="0" />
        <mxCell id="XJMWt93YdSyoXjv1WJ4x-1" value="User" style="shape=umlActor;verticalLabelPosition=bottom;verticalAlign=top;html=1;outlineConnect=0;" vertex="1" parent="1">
          <mxGeometry x="60" y="80" width="30" height="50" as="geometry" />
        </mxCell>
        <mxCell id="XJMWt93YdSyoXjv1WJ4x-4" value="request recipe" style="shape=umlFrame;whiteSpace=wrap;html=1;pointerEvents=0;width=110;height=20;" vertex="1" parent="1">
          <mxGeometry x="40" y="40" width="760" height="400" as="geometry" />
        </mxCell>
      </root>
    </mxGraphModel>
  </diagram>
</mxfile>
